<svg viewBox="0 0 200 220" width="200" xmlns="http://www.w3.org/2000/svg">
  <defs>
    <linearGradient id="blueGrad" x1="0%" y1="0%" x2="100%" y2="100%">
      <stop offset="0%" style="stop-color:#3b82f6"/>
      <stop offset="100%" style="stop-color:#1d4ed8"/>
    </linearGradient>
    <linearGradient id="orangeGrad" x1="0%" y1="0%" x2="100%" y2="100%">
      <stop offset="0%" style="stop-color:#fb923c"/>
      <stop offset="100%" style="stop-color:#ea580c"/>
    </linearGradient>
  </defs>
  <path d="M100 30 C55 30 45 65 45 85 C45 108 70 120 100 120 C130 120 155 108 155 85 C155 65 145 30 100 30"
        fill="url(#blueGrad)"/>
  <circle cx="72" cy="58" r="8" fill="#fff"/>
  <path d="M100 170 C145 170 155 135 155 115 C155 92 130 80 100 80 C70 80 45 92 45 115 C45 135 55 170 100 170"
        fill="url(#orangeGrad)"/>
  <circle cx="128" cy="142" r="8" fill="#fff"/>
  <text x="100" y="205" text-anchor="middle" font-family="Inter, sans-serif" font-size="22" font-weight="600" fill="#1f2937">oehrpy</text>
</svg>
